<?xml version="1.0" standalone="no"?>
<!DOCTYPE svg PUBLIC "-//W3C//DTD SVG 20010904//EN"
 "http://www.w3.org/TR/2001/REC-SVG-20010904/DTD/svg10.dtd">
<svg version="1.0" xmlns="http://www.w3.org/2000/svg"
 width="339.000000pt" height="339.000000pt" viewBox="0 0 339.000000 339.000000"
 preserveAspectRatio="xMidYMid meet">
<metadata>
Created by potrace 1.11, written by Peter Selinger 2001-2013
</metadata>
<g transform="translate(0.000000,339.000000) scale(0.100000,-0.100000)"
fill="#000000" stroke="none">
<path d="M792 3350 c-17 -11 -33 -25 -33 -32 -5 -40 5 -70 46 -136 25 -41 45
-78 45 -83 0 -5 5 -9 10 -9 6 0 10 -4 10 -9 0 -5 35 -67 78 -137 90 -148 73
-121 201 -334 55 -91 180 -300 280 -465 99 -165 187 -320 196 -344 17 -50 19
-129 5 -183 -6 -21 -202 -358 -436 -749 -235 -391 -430 -724 -434 -739 -10
-34 7 -70 39 -86 17 -9 135 -12 430 -10 l406 2 58 26 c32 15 73 42 91 61 18
18 106 157 196 308 90 151 184 308 209 349 25 41 51 82 56 92 6 10 43 73 83
138 39 66 72 124 72 129 0 5 3 11 8 13 4 2 23 30 43 63 20 33 73 120 117 193
114 189 123 208 124 289 0 37 -5 82 -11 98 -28 70 -858 1441 -898 1481 -22 24
-63 53 -90 66 -48 23 -52 23 -458 25 -393 3 -412 2 -443 -17z"/>
</g>
</svg>
